<?xml version="1.0" encoding="utf-8"?>
<!-- Generator: Adobe Illustrator 27.7.0, SVG Export Plug-In . SVG Version: 6.00 Build 0)  -->
<svg version="1.1" id="Layer_1" xmlns="http://www.w3.org/2000/svg" xmlns:xlink="http://www.w3.org/1999/xlink" x="0px" y="0px"
	 viewBox="0 0 288 288" style="enable-background:new 0 0 288 288;" xml:space="preserve">
<style type="text/css">
	.st0{fill:#FAB915;}
</style>
<path class="st0" d="M134.93,2c5.54,0,11.08,0,16.63,0c0.71,0.16,1.42,0.41,2.14,0.46c19.89,1.35,38.73,6.6,56.15,16.22
	c39.95,22.08,64.37,55.61,73.1,100.5c1.06,5.43,1.22,10.96,2.18,16.39c0,5.73,0,11.45,0,17.18c-0.55,4-1.02,8.02-1.65,12.01
	c-5.68,36.03-22.56,65.71-50.67,88.97c-3.3,2.73-6.78,5.23-10.28,7.92c1.12,0.7,2.15,0.41,3.11,0.41c14.3,0.02,28.6,0.03,42.9,0.01
	c5.53-0.01,11.06-0.09,16.59-0.14c0,7.3-0.06,14.6,0.05,21.89c0.03,1.66-0.34,1.99-1.99,1.99c-31.4-0.06-62.81-0.05-94.22-0.05
	c-18.01,0-36.02,0-54.04,0c-0.71-0.16-1.42-0.41-2.14-0.46c-19.89-1.34-38.73-6.6-56.15-16.22C36.69,247,12.27,213.47,3.55,168.58
	c-1.06-5.43-1.22-10.96-2.18-16.39c0-5.54,0-11.08,0-16.63c0.16-0.8,0.42-1.59,0.47-2.39c1.38-19.79,6.62-38.54,16.19-55.88
	c22.07-39.96,55.6-64.38,100.48-73.12C123.96,3.12,129.5,2.97,134.93,2z M64.59,82.87c-19.63,0.04-35.49,15.8-35.51,35.3
	c-0.02,19.55,15.84,35.58,35.26,35.63c19.61,0.04,35.75-16.02,35.67-35.52C99.93,98.69,84.06,82.84,64.59,82.87z M222,82.88
	c-19.5-0.06-35.38,15.73-35.51,35.32c-0.13,19.51,15.93,35.58,35.57,35.6c19.41,0.02,35.34-15.99,35.35-35.53
	C257.43,98.75,241.6,82.94,222,82.88z M130,211.09c0-19.73-15.68-35.66-35.08-35.66c-19.85,0-35.87,15.79-35.8,35.3
	c0.07,19.59,15.95,35.6,35.31,35.59C114.05,246.3,130,230.5,130,211.09z M156.5,210.84c-0.07,19.49,15.72,35.34,35.33,35.47
	c19.48,0.13,35.5-15.92,35.55-35.62c0.05-19.4-15.89-35.2-35.56-35.27C172.32,175.36,156.57,191.15,156.5,210.84z M178.71,61.09
	c-0.01-19.53-15.85-35.35-35.42-35.38c-19.55-0.03-35.45,15.76-35.51,35.29c-0.06,19.59,16.04,35.72,35.56,35.6
	C162.88,96.48,178.72,80.58,178.71,61.09z M154.99,143.96c0.04-6.58-5.1-11.79-11.66-11.83c-6.58-0.04-11.79,5.1-11.83,11.66
	c-0.04,6.58,5.1,11.79,11.66,11.83C149.74,155.66,154.95,150.52,154.99,143.96z"/>
</svg>
